{
	"asset":{
		"generator":"Khronos glTF Blender I/O v4.0.44",
		"version":"2.0"
	},
	"extensionsUsed":[
		"KHR_materials_specular",
		"KHR_materials_ior"
	],
	"scene":0,
	"scenes":[
		{
			"name":"Scene",
			"nodes":[
				0
			]
		}
	],
	"nodes":[
		{
			"mesh":0,
			"name":"Copo"
		}
	],
	"materials":[
		{
			"alphaMode":"BLEND",
			"extensions":{
				"KHR_materials_specular":{
					"specularFactor":0
				},
				"KHR_materials_ior":{
					"ior":1.4500000476837158
				}
			},
			"name":"Vrido",
			"pbrMetallicRoughness":{
				"baseColorFactor":[
					0.7992371916770935,
					0.7990679144859314,
					0.7990452647209167,
					0.15000000596046448
				],
				"metallicFactor":0
			}
		}
	],
	"meshes":[
		{
			"name":"Cube.029",
			"primitives":[
				{
					"attributes":{
						"POSITION":0,
						"NORMAL":1,
						"TEXCOORD_0":2,
						"TANGENT":3
					},
					"indices":4,
					"material":0
				}
			]
		}
	],
	"accessors":[
		{
			"bufferView":0,
			"componentType":5126,
			"count":50,
			"max":[
				0.05449316278100014,
				0.10011184215545654,
				0.05449316278100014
			],
			"min":[
				-0.05449316278100014,
				-0.0883924663066864,
				-0.05449316278100014
			],
			"type":"VEC3"
		},
		{
			"bufferView":1,
			"componentType":5126,
			"count":50,
			"type":"VEC3"
		},
		{
			"bufferView":2,
			"componentType":5126,
			"count":50,
			"type":"VEC2"
		},
		{
			"bufferView":3,
			"componentType":5126,
			"count":50,
			"type":"VEC4"
		},
		{
			"bufferView":4,
			"componentType":5123,
			"count":84,
			"type":"SCALAR"
		}
	],
	"bufferViews":[
		{
			"buffer":0,
			"byteLength":600,
			"byteOffset":0,
			"target":34962
		},
		{
			"buffer":0,
			"byteLength":600,
			"byteOffset":600,
			"target":34962
		},
		{
			"buffer":0,
			"byteLength":400,
			"byteOffset":1200,
			"target":34962
		},
		{
			"buffer":0,
			"byteLength":800,
			"byteOffset":1600,
			"target":34962
		},
		{
			"buffer":0,
			"byteLength":168,
			"byteOffset":2400,
			"target":34963
		}
	],
	"buffers":[
		{
			"byteLength":2568,
			"uri":"copo-fd794257ab45b1054f25d56fc722faa4.bin"
		}
	]
}
