{
	"asset":{
		"generator":"Khronos glTF Blender I/O v4.0.44",
		"version":"2.0"
	},
	"extensionsUsed":[
		"KHR_materials_specular",
		"KHR_materials_ior"
	],
	"scene":0,
	"scenes":[
		{
			"name":"Scene",
			"nodes":[
				0,
				3
			]
		}
	],
	"nodes":[
		{
			"mesh":0,
			"name":"Cube"
		},
		{
			"name":"Bone",
			"translation":[
				-0.36787834763526917,
				0,
				-6.60719479128602e-10
			]
		},
		{
			"mesh":1,
			"name":"PortaA",
			"skin":0
		},
		{
			"children":[
				2,
				1
			],
			"name":"arm_PortaA",
			"rotation":[
				0,
				-1,
				0,
				1.6292068494294654e-07
			],
			"translation":[
				0,
				1.0499324798583984,
				0.7255535125732422
			]
		}
	],
	"animations":[
		{
			"channels":[
				{
					"sampler":0,
					"target":{
						"node":1,
						"path":"translation"
					}
				},
				{
					"sampler":1,
					"target":{
						"node":1,
						"path":"rotation"
					}
				},
				{
					"sampler":2,
					"target":{
						"node":1,
						"path":"scale"
					}
				}
			],
			"name":"arm_PortaBanheiroAction.001",
			"samplers":[
				{
					"input":30,
					"interpolation":"STEP",
					"output":31
				},
				{
					"input":32,
					"interpolation":"LINEAR",
					"output":33
				},
				{
					"input":30,
					"interpolation":"STEP",
					"output":34
				}
			]
		}
	],
	"materials":[
		{
			"doubleSided":true,
			"extensions":{
				"KHR_materials_specular":{
					"specularFactor":0
				},
				"KHR_materials_ior":{
					"ior":1.4500000476837158
				}
			},
			"name":"Chao de madeira",
			"pbrMetallicRoughness":{
				"baseColorTexture":{
					"index":0
				},
				"metallicFactor":0
			}
		},
		{
			"doubleSided":true,
			"extensions":{
				"KHR_materials_specular":{
					"specularFactor":0
				},
				"KHR_materials_ior":{
					"ior":1.4500000476837158
				}
			},
			"name":"Parede4",
			"pbrMetallicRoughness":{
				"baseColorFactor":[
					1,
					0.5648953914642334,
					0.47015267610549927,
					1
				],
				"baseColorTexture":{
					"index":1
				},
				"metallicFactor":0,
				"roughnessFactor":0
			}
		},
		{
			"doubleSided":true,
			"extensions":{
				"KHR_materials_specular":{
					"specularFactor":0
				},
				"KHR_materials_ior":{
					"ior":1.4500000476837158
				}
			},
			"name":"Teto",
			"pbrMetallicRoughness":{
				"baseColorTexture":{
					"index":2
				},
				"metallicFactor":0
			}
		},
		{
			"doubleSided":true,
			"extensions":{
				"KHR_materials_specular":{
					"specularFactor":0
				},
				"KHR_materials_ior":{
					"ior":1.4500000476837158
				}
			},
			"extras":{
				"vrm_addon_extension":{
					"mtoon1":{}
				}
			},
			"name":"Madera.001",
			"pbrMetallicRoughness":{
				"baseColorTexture":{
					"index":3
				},
				"metallicFactor":0
			}
		},
		{
			"doubleSided":true,
			"extensions":{
				"KHR_materials_specular":{
					"specularFactor":0
				},
				"KHR_materials_ior":{
					"ior":1.4500000476837158
				}
			},
			"name":"Metal",
			"pbrMetallicRoughness":{
				"baseColorTexture":{
					"index":4
				},
				"metallicFactor":0,
				"roughnessFactor":0
			}
		}
	],
	"meshes":[
		{
			"name":"Cube.001",
			"primitives":[
				{
					"attributes":{
						"POSITION":0,
						"NORMAL":1,
						"TEXCOORD_0":2,
						"TANGENT":3
					},
					"indices":4,
					"material":0
				},
				{
					"attributes":{
						"POSITION":5,
						"NORMAL":6,
						"TEXCOORD_0":7,
						"TANGENT":8
					},
					"indices":9,
					"material":1
				},
				{
					"attributes":{
						"POSITION":10,
						"NORMAL":11,
						"TEXCOORD_0":12,
						"TANGENT":13
					},
					"indices":14,
					"material":2
				}
			]
		},
		{
			"name":"Cube.020",
			"primitives":[
				{
					"attributes":{
						"POSITION":15,
						"NORMAL":16,
						"TEXCOORD_0":17,
						"TANGENT":18,
						"JOINTS_0":19,
						"WEIGHTS_0":20
					},
					"indices":21,
					"material":3
				},
				{
					"attributes":{
						"POSITION":22,
						"NORMAL":23,
						"TEXCOORD_0":24,
						"TANGENT":25,
						"JOINTS_0":26,
						"WEIGHTS_0":27
					},
					"indices":28,
					"material":4
				}
			]
		}
	],
	"textures":[
		{
			"sampler":0,
			"source":0
		},
		{
			"sampler":0,
			"source":1
		},
		{
			"sampler":0,
			"source":1
		},
		{
			"sampler":0,
			"source":2
		},
		{
			"sampler":1,
			"source":3
		}
	],
	"images":[
		{
			"mimeType":"image/png",
			"name":"WoodFloor043_1K-PNG_Color.png",
			"uri":"../../blender/textures/WoodFloor043_1K-PNG_Color.png"
		},
		{
			"mimeType":"image/png",
			"name":"Concrete034_1K-PNG_Color.png",
			"uri":"../../blender/textures/Concrete034_1K-PNG_Color.png"
		},
		{
			"mimeType":"image/png",
			"name":"Wood066_1K-PNG_Color.png.001",
			"uri":"../../blender/textures/Wood066_1K-PNG_Color.png"
		},
		{
			"mimeType":"image/png",
			"name":"Metal012_1K-PNG_Color.png",
			"uri":"../../blender/textures/Metal012_1K-PNG_Color.png"
		}
	],
	"skins":[
		{
			"inverseBindMatrices":29,
			"joints":[
				1
			],
			"name":"arm_PortaA"
		}
	],
	"accessors":[
		{
			"bufferView":0,
			"componentType":5126,
			"count":28,
			"max":[
				1.9657068252563477,
				2.099864959716797,
				0.8640897870063782
			],
			"min":[
				-1.9657068252563477,
				-0.22234296798706055,
				-3.067324161529541
			],
			"type":"VEC3"
		},
		{
			"bufferView":1,
			"componentType":5126,
			"count":28,
			"type":"VEC3"
		},
		{
			"bufferView":2,
			"componentType":5126,
			"count":28,
			"type":"VEC2"
		},
		{
			"bufferView":3,
			"componentType":5126,
			"count":28,
			"type":"VEC4"
		},
		{
			"bufferView":4,
			"componentType":5123,
			"count":42,
			"type":"SCALAR"
		},
		{
			"bufferView":5,
			"componentType":5126,
			"count":52,
			"max":[
				1.9657068252563477,
				2.91654896736145,
				0.8640897870063782
			],
			"min":[
				-1.9657068252563477,
				-0.22234296798706055,
				-3.067324161529541
			],
			"type":"VEC3"
		},
		{
			"bufferView":6,
			"componentType":5126,
			"count":52,
			"type":"VEC3"
		},
		{
			"bufferView":7,
			"componentType":5126,
			"count":52,
			"type":"VEC2"
		},
		{
			"bufferView":8,
			"componentType":5126,
			"count":52,
			"type":"VEC4"
		},
		{
			"bufferView":9,
			"componentType":5123,
			"count":78,
			"type":"SCALAR"
		},
		{
			"bufferView":10,
			"componentType":5126,
			"count":8,
			"max":[
				1.9657068252563477,
				2.91654896736145,
				0.8640897870063782
			],
			"min":[
				-1.9657068252563477,
				2.699767589569092,
				-3.067324161529541
			],
			"type":"VEC3"
		},
		{
			"bufferView":11,
			"componentType":5126,
			"count":8,
			"type":"VEC3"
		},
		{
			"bufferView":12,
			"componentType":5126,
			"count":8,
			"type":"VEC2"
		},
		{
			"bufferView":13,
			"componentType":5126,
			"count":8,
			"type":"VEC4"
		},
		{
			"bufferView":14,
			"componentType":5123,
			"count":12,
			"type":"SCALAR"
		},
		{
			"bufferView":15,
			"componentType":5126,
			"count":64,
			"max":[
				0.38826918601989746,
				2.0918917655944824,
				0.8269091844558716
			],
			"min":[
				-0.38132286071777344,
				0.007973194122314453,
				0.7891093492507935
			],
			"type":"VEC3"
		},
		{
			"bufferView":16,
			"componentType":5126,
			"count":64,
			"type":"VEC3"
		},
		{
			"bufferView":17,
			"componentType":5126,
			"count":64,
			"type":"VEC2"
		},
		{
			"bufferView":18,
			"componentType":5126,
			"count":64,
			"type":"VEC4"
		},
		{
			"bufferView":19,
			"componentType":5121,
			"count":64,
			"type":"VEC4"
		},
		{
			"bufferView":20,
			"componentType":5126,
			"count":64,
			"type":"VEC4"
		},
		{
			"bufferView":21,
			"componentType":5123,
			"count":96,
			"type":"SCALAR"
		},
		{
			"bufferView":22,
			"componentType":5126,
			"count":104,
			"max":[
				-0.2932705581188202,
				1.0472807884216309,
				0.8680470585823059
			],
			"min":[
				-0.33574074506759644,
				1.0048106908798218,
				0.7479714155197144
			],
			"type":"VEC3"
		},
		{
			"bufferView":23,
			"componentType":5126,
			"count":104,
			"type":"VEC3"
		},
		{
			"bufferView":24,
			"componentType":5126,
			"count":104,
			"type":"VEC2"
		},
		{
			"bufferView":25,
			"componentType":5126,
			"count":104,
			"type":"VEC4"
		},
		{
			"bufferView":26,
			"componentType":5121,
			"count":104,
			"type":"VEC4"
		},
		{
			"bufferView":27,
			"componentType":5126,
			"count":104,
			"type":"VEC4"
		},
		{
			"bufferView":28,
			"componentType":5123,
			"count":156,
			"type":"SCALAR"
		},
		{
			"bufferView":29,
			"componentType":5126,
			"count":1,
			"type":"MAT4"
		},
		{
			"bufferView":30,
			"componentType":5126,
			"count":2,
			"max":[
				0.4166666666666667
			],
			"min":[
				0.041666666666666664
			],
			"type":"SCALAR"
		},
		{
			"bufferView":31,
			"componentType":5126,
			"count":2,
			"type":"VEC3"
		},
		{
			"bufferView":32,
			"componentType":5126,
			"count":10,
			"max":[
				0.4166666666666667
			],
			"min":[
				0.041666666666666664
			],
			"type":"SCALAR"
		},
		{
			"bufferView":33,
			"componentType":5126,
			"count":10,
			"type":"VEC4"
		},
		{
			"bufferView":34,
			"componentType":5126,
			"count":2,
			"type":"VEC3"
		}
	],
	"bufferViews":[
		{
			"buffer":0,
			"byteLength":336,
			"byteOffset":0,
			"target":34962
		},
		{
			"buffer":0,
			"byteLength":336,
			"byteOffset":336,
			"target":34962
		},
		{
			"buffer":0,
			"byteLength":224,
			"byteOffset":672,
			"target":34962
		},
		{
			"buffer":0,
			"byteLength":448,
			"byteOffset":896,
			"target":34962
		},
		{
			"buffer":0,
			"byteLength":84,
			"byteOffset":1344,
			"target":34963
		},
		{
			"buffer":0,
			"byteLength":624,
			"byteOffset":1428,
			"target":34962
		},
		{
			"buffer":0,
			"byteLength":624,
			"byteOffset":2052,
			"target":34962
		},
		{
			"buffer":0,
			"byteLength":416,
			"byteOffset":2676,
			"target":34962
		},
		{
			"buffer":0,
			"byteLength":832,
			"byteOffset":3092,
			"target":34962
		},
		{
			"buffer":0,
			"byteLength":156,
			"byteOffset":3924,
			"target":34963
		},
		{
			"buffer":0,
			"byteLength":96,
			"byteOffset":4080,
			"target":34962
		},
		{
			"buffer":0,
			"byteLength":96,
			"byteOffset":4176,
			"target":34962
		},
		{
			"buffer":0,
			"byteLength":64,
			"byteOffset":4272,
			"target":34962
		},
		{
			"buffer":0,
			"byteLength":128,
			"byteOffset":4336,
			"target":34962
		},
		{
			"buffer":0,
			"byteLength":24,
			"byteOffset":4464,
			"target":34963
		},
		{
			"buffer":0,
			"byteLength":768,
			"byteOffset":4488,
			"target":34962
		},
		{
			"buffer":0,
			"byteLength":768,
			"byteOffset":5256,
			"target":34962
		},
		{
			"buffer":0,
			"byteLength":512,
			"byteOffset":6024,
			"target":34962
		},
		{
			"buffer":0,
			"byteLength":1024,
			"byteOffset":6536,
			"target":34962
		},
		{
			"buffer":0,
			"byteLength":256,
			"byteOffset":7560,
			"target":34962
		},
		{
			"buffer":0,
			"byteLength":1024,
			"byteOffset":7816,
			"target":34962
		},
		{
			"buffer":0,
			"byteLength":192,
			"byteOffset":8840,
			"target":34963
		},
		{
			"buffer":0,
			"byteLength":1248,
			"byteOffset":9032,
			"target":34962
		},
		{
			"buffer":0,
			"byteLength":1248,
			"byteOffset":10280,
			"target":34962
		},
		{
			"buffer":0,
			"byteLength":832,
			"byteOffset":11528,
			"target":34962
		},
		{
			"buffer":0,
			"byteLength":1664,
			"byteOffset":12360,
			"target":34962
		},
		{
			"buffer":0,
			"byteLength":416,
			"byteOffset":14024,
			"target":34962
		},
		{
			"buffer":0,
			"byteLength":1664,
			"byteOffset":14440,
			"target":34962
		},
		{
			"buffer":0,
			"byteLength":312,
			"byteOffset":16104,
			"target":34963
		},
		{
			"buffer":0,
			"byteLength":64,
			"byteOffset":16416
		},
		{
			"buffer":0,
			"byteLength":8,
			"byteOffset":16480
		},
		{
			"buffer":0,
			"byteLength":24,
			"byteOffset":16488
		},
		{
			"buffer":0,
			"byteLength":40,
			"byteOffset":16512
		},
		{
			"buffer":0,
			"byteLength":160,
			"byteOffset":16552
		},
		{
			"buffer":0,
			"byteLength":24,
			"byteOffset":16712
		}
	],
	"samplers":[
		{
			"magFilter":9728,
			"minFilter":9984
		},
		{
			"magFilter":9729,
			"minFilter":9987
		}
	],
	"buffers":[
		{
			"byteLength":16736,
			"uri":"cubinho-f08de65d527f3bc96e4a4d1cd98c623d.bin"
		}
	]
}
